# xmcd CD database file
#
# Track frame offsets:
#	150
#	17797
#	42995
#	72580
#	88387
#	107000
#	145835
#
# Disc length: 2299 seconds
#
# Revision: 0
# Processed by: cddbd v1.5.2PL0 Copyright (c) Steve Scherf et al.
# Submitted via: CDex 1.51
#
DISCID=6308f907
DTITLE=Frank Ricotti Quartet - Our Point of View
DYEAR=1969
DGENRE=Jazz
TTITLE0=Late into the night
TTITLE1=Three times loser, three times blueser
TTITLE2=Don't know why
TTITLE3=House in the Country
TTITLE4=Abbadatt the Cat
TTITLE5=Dark Though Sun Shines
TTITLE6=Walter L
EXTD=YEAR: 1969
EXTT0=
EXTT1=
EXTT2=
EXTT3=
EXTT4=
EXTT5=
EXTT6=
PLAYORDER=
